<svg width="56" height="56" viewBox="0 0 56 56" fill="none" xmlns="http://www.w3.org/2000/svg">
<rect x="4" y="4" width="48" height="48" rx="24" fill="#D1E9FF"/>
<path d="M36.84 20.61C36.3292 20.099 35.7228 19.6936 35.0554 19.4171C34.3879 19.1405 33.6725 18.9982 32.95 18.9982C32.2275 18.9982 31.5121 19.1405 30.8446 19.4171C30.1772 19.6936 29.5708 20.099 29.06 20.61L28 21.67L26.94 20.61C25.9083 19.5783 24.509 18.9987 23.05 18.9987C21.591 18.9987 20.1917 19.5783 19.16 20.61C18.1283 21.6417 17.5487 23.041 17.5487 24.5C17.5487 25.959 18.1283 27.3583 19.16 28.39L20.22 29.45L28 37.23L35.78 29.45L36.84 28.39C37.351 27.8792 37.7563 27.2728 38.0329 26.6053C38.3095 25.9379 38.4518 25.2225 38.4518 24.5C38.4518 23.7775 38.3095 23.0621 38.0329 22.3946C37.7563 21.7272 37.351 21.1208 36.84 20.61V20.61Z" stroke="#1570EF" stroke-width="2" stroke-linecap="round" stroke-linejoin="round"/>
<rect x="4" y="4" width="48" height="48" rx="24" stroke="#EFF8FF" stroke-width="8"/>
</svg>
